# xmcd
#
# Track frame offsets:
#	150
#	15688
#	24498
#	41727
#	58261
#	78574
#	87942
#	102157
#	116347
#	130575
#	153919
#	197235
#	220944
#	231465
#	244267
#	254153
#	267965
#	291777
#	300709
#
# Disc length: 4086 seconds
#
# Revision: 0
# Processed by: cddbd v1.5.2PL0 Copyright (c) Steve Scherf et al.
# Submitted via: audiograbber 1.83.01
#
DISCID=120ff413
DTITLE=Big Band der Bundeswehr - Big Band Birthday
DYEAR=2011
DGENRE=Blues
TTITLE0=Big Band - Happy Birthday
TTITLE1=Big Band - Anchors Away
TTITLE2=Andalusian Dreams - Vamos
TTITLE3=Andalusian Dreams - Hijo De La Luna
TTITLE4=Andalusian Dreams - Malaguena
TTITLE5=Shirley Bassey Medley - Goldfinger
TTITLE6=Shirley Bassey Medley - Never, Never, Never
TTITLE7=Shirley Bassey Medley - History Repeating
TTITLE8=Shirley Bassey Medley - All By Myself
TTITLE9=Big Band - Tico Tico
TTITLE10=Coffee - Shop
TTITLE11=Big Band - Breeze Of Home
TTITLE12=Phil Collins Medley - Something Happened
TTITLE13=Phil Collins Medley - Against All Odds
TTITLE14=Phil Collins Medley - Dance Into The Light
TTITLE15=Phil Collins Medley - You'll Be In My Heart
TTITLE16=Amazing Grace - The Beginning
TTITLE17=Amazing Grace - Sunset
TTITLE18=Amazing Grace - Power To The People
EXTD=
EXTT0=
EXTT1=
EXTT2=
EXTT3=
EXTT4=
EXTT5=
EXTT6=
EXTT7=
EXTT8=
EXTT9=
EXTT10=
EXTT11=
EXTT12=
EXTT13=
EXTT14=
EXTT15=
EXTT16=
EXTT17=
EXTT18=
PLAYORDER=
